<svg xmlns="http://www.w3.org/2000/svg" xmlns:xlink="http://www.w3.org/1999/xlink" viewBox="0,0,256,256" width="50px" height="50px"><g fill-opacity="1" fill="#ffffff" fill-rule="nonzero" stroke="none" stroke-width="1" stroke-linecap="butt" stroke-linejoin="miter" stroke-miterlimit="10" stroke-dasharray="" stroke-dashoffset="0" font-family="none" font-weight="none" font-size="none" text-anchor="none" style="mix-blend-mode: normal"><g transform="scale(5.12,5.12)"><path d="M25,4.0625c-12.58594,0 -22.9375,8.86328 -22.9375,19.9375c0,6.42578 3.5625,12.09375 8.9375,15.71875c-0.00781,0.21484 0,0.54688 -0.28125,1.59375c-0.34766,1.29297 -1.03516,3.125 -2.46875,5.15625l-1.03125,1.4375l1.78125,0.03125c6.17578,0.02734 9.75391,-4.03125 10.3125,-4.6875c1.82422,0.40625 3.72266,0.6875 5.6875,0.6875c12.58203,0 22.9375,-8.86328 22.9375,-19.9375c0,-11.07422 -10.35547,-19.9375 -22.9375,-19.9375zM25,5.9375c11.71484,0 21.0625,8.15234 21.0625,18.0625c0,9.91016 -9.34766,18.0625 -21.0625,18.0625c-2.00391,0 -3.94922,-0.24219 -5.78125,-0.6875l-0.5625,-0.125l-0.375,0.46875c0,0 -2.89062,3.25781 -7.5,4.03125c0.83203,-1.49219 1.46484,-2.87891 1.75,-3.9375c0.39844,-1.48047 0.40625,-2.5 0.40625,-2.5v-0.5l-0.4375,-0.28125c-5.22656,-3.3125 -8.5625,-8.58984 -8.5625,-14.53125c0,-9.91016 9.34375,-18.0625 21.0625,-18.0625z"></path></g></g></svg>